{
  "accessors": [
    {
      "bufferView": 2,
      "componentType": 5126,
      "count": 48,
      "max": [
        20.0,
        14.0,
        -15.0
      ],
      "min": [
        -20.0,
        13.0,
        -55.0
      ],
      "type": "VEC3"
    },
    {
      "bufferView": 2,
      "byteOffset": 576,
      "componentType": 5126,
      "count": 48,
      "type": "VEC3"
    },
    {
      "bufferView": 1,
      "componentType": 5126,
      "count": 48,
      "type": "VEC2"
    },
    {
      "bufferView": 0,
      "componentType": 5125,
      "count": 72,
      "type": "SCALAR"
    },
    {
      "bufferView": 2,
      "byteOffset": 1152,
      "componentType": 5126,
      "count": 1250,
      "max": [
        -121.37483978271484,
        76.34213256835938,
        -21.58548355102539
      ],
      "min": [
        -172.98532104492188,
        3.999999761581421,
        -68.15570831298828
      ],
      "type": "VEC3"
    },
    {
      "bufferView": 2,
      "byteOffset": 16152,
      "componentType": 5126,
      "count": 1250,
      "type": "VEC3"
    },
    {
      "bufferView": 1,
      "byteOffset": 384,
      "componentType": 5126,
      "count": 1250,
      "type": "VEC2"
    },
    {
      "bufferView": 0,
      "byteOffset": 288,
      "componentType": 5125,
      "count": 2433,
      "type": "SCALAR"
    },
    {
      "bufferView": 2,
      "byteOffset": 31152,
      "componentType": 5126,
      "count": 1294,
      "max": [
        53.015724182128906,
        108.80584716796875,
        -74.96285247802734
      ],
      "min": [
        -53.015724182128906,
        12.999972343444824,
        -199.03961181640625
      ],
      "type": "VEC3"
    },
    {
      "bufferView": 2,
      "byteOffset": 46680,
      "componentType": 5126,
      "count": 1294,
      "type": "VEC3"
    },
    {
      "bufferView": 1,
      "byteOffset": 10384,
      "componentType": 5126,
      "count": 1294,
      "type": "VEC2"
    },
    {
      "bufferView": 0,
      "byteOffset": 10020,
      "componentType": 5125,
      "count": 2163,
      "type": "SCALAR"
    },
    {
      "bufferView": 2,
      "byteOffset": 62208,
      "componentType": 5126,
      "count": 847,
      "max": [
        174.05699157714844,
        65.97229766845703,
        -18.63370132446289
      ],
      "min": [
        118.26141357421875,
        3.999999761581421,
        -73.42198181152344
      ],
      "type": "VEC3"
    },
    {
      "bufferView": 2,
      "byteOffset": 72372,
      "componentType": 5126,
      "count": 847,
      "type": "VEC3"
    },
    {
      "bufferView": 1,
      "byteOffset": 20736,
      "componentType": 5126,
      "count": 847,
      "type": "VEC2"
    },
    {
      "bufferView": 0,
      "byteOffset": 18672,
      "componentType": 5125,
      "count": 1308,
      "type": "SCALAR"
    },
    {
      "bufferView": 2,
      "byteOffset": 82536,
      "componentType": 5126,
      "count": 42,
      "max": [
        9.878312110900879,
        30.251909255981445,
        -25.141862869262695
      ],
      "min": [
        -9.87830924987793,
        16.74603843688965,
        -44.89848709106445
      ],
      "type": "VEC3"
    },
    {
      "bufferView": 2,
      "byteOffset": 83040,
      "componentType": 5126,
      "count": 42,
      "type": "VEC3"
    },
    {
      "bufferView": 1,
      "byteOffset": 27512,
      "componentType": 5126,
      "count": 42,
      "type": "VEC2"
    },
    {
      "bufferView": 0,
      "byteOffset": 23904,
      "componentType": 5125,
      "count": 120,
      "type": "SCALAR"
    },
    {
      "bufferView": 2,
      "byteOffset": 83544,
      "componentType": 5126,
      "count": 8,
      "max": [
        80.48473358154297,
        12.933574676513672,
        27.947620391845703
      ],
      "min": [
        -80.48473358154297,
        0.6548596024513245,
        -56.00593566894531
      ],
      "type": "VEC3"
    },
    {
      "bufferView": 2,
      "byteOffset": 83640,
      "componentType": 5126,
      "count": 8,
      "type": "VEC3"
    },
    {
      "bufferView": 1,
      "byteOffset": 27848,
      "componentType": 5126,
      "count": 8,
      "type": "VEC2"
    },
    {
      "bufferView": 0,
      "byteOffset": 24384,
      "componentType": 5125,
      "count": 12,
      "type": "SCALAR"
    },
    {
      "bufferView": 2,
      "byteOffset": 83736,
      "componentType": 5126,
      "count": 3694,
      "max": [
        230.0,
        13.767284393310547,
        154.99998474121094
      ],
      "min": [
        -230.0,
        3.999992609024048,
        -235.66075134277344
      ],
      "type": "VEC3"
    },
    {
      "bufferView": 2,
      "byteOffset": 128064,
      "componentType": 5126,
      "count": 3694,
      "type": "VEC3"
    },
    {
      "bufferView": 1,
      "byteOffset": 27912,
      "componentType": 5126,
      "count": 3694,
      "type": "VEC2"
    },
    {
      "bufferView": 0,
      "byteOffset": 24432,
      "componentType": 5125,
      "count": 5556,
      "type": "SCALAR"
    },
    {
      "bufferView": 2,
      "byteOffset": 172392,
      "componentType": 5126,
      "count": 17712,
      "max": [
        230.0,
        16.79285430908203,
        235.00001525878906
      ],
      "min": [
        -230.0,
        0.0,
        -235.00001525878906
      ],
      "type": "VEC3"
    },
    {
      "bufferView": 2,
      "byteOffset": 384936,
      "componentType": 5126,
      "count": 17712,
      "type": "VEC3"
    },
    {
      "bufferView": 1,
      "byteOffset": 57464,
      "componentType": 5126,
      "count": 17712,
      "type": "VEC2"
    },
    {
      "bufferView": 0,
      "byteOffset": 46656,
      "componentType": 5125,
      "count": 27120,
      "type": "SCALAR"
    },
    {
      "bufferView": 2,
      "byteOffset": 597480,
      "componentType": 5126,
      "count": 4964,
      "max": [
        80.0,
        13.0,
        5.000001907348633
      ],
      "min": [
        -80.0,
        -2.086162567138672e-07,
        -205.0
      ],
      "type": "VEC3"
    },
    {
      "bufferView": 2,
      "byteOffset": 657048,
      "componentType": 5126,
      "count": 4964,
      "type": "VEC3"
    },
    {
      "bufferView": 1,
      "byteOffset": 199160,
      "componentType": 5126,
      "count": 4964,
      "type": "VEC2"
    },
    {
      "bufferView": 0,
      "byteOffset": 155136,
      "componentType": 5125,
      "count": 7590,
      "type": "SCALAR"
    },
    {
      "bufferView": 2,
      "byteOffset": 716616,
      "componentType": 5126,
      "count": 930,
      "max": [
        230.4617156982422,
        15.693338394165039,
        31.00000762939453
      ],
      "min": [
        -180.38394165039063,
        4.0,
        -45.46171569824219
      ],
      "type": "VEC3"
    },
    {
      "bufferView": 2,
      "byteOffset": 727776,
      "componentType": 5126,
      "count": 930,
      "type": "VEC3"
    },
    {
      "bufferView": 1,
      "byteOffset": 238872,
      "componentType": 5126,
      "count": 930,
      "type": "VEC2"
    },
    {
      "bufferView": 0,
      "byteOffset": 185496,
      "componentType": 5125,
      "count": 1410,
      "type": "SCALAR"
    },
    {
      "bufferView": 2,
      "byteOffset": 738936,
      "componentType": 5126,
      "count": 1494,
      "max": [
        55.49586486816406,
        1.2163333892822266,
        16.20638656616211
      ],
      "min": [
        -55.49586486816406,
        0.6548595428466797,
        -54.60221481323242
      ],
      "type": "VEC3"
    },
    {
      "bufferView": 2,
      "byteOffset": 756864,
      "componentType": 5126,
      "count": 1494,
      "type": "VEC3"
    },
    {
      "bufferView": 1,
      "byteOffset": 246312,
      "componentType": 5126,
      "count": 1494,
      "type": "VEC2"
    },
    {
      "bufferView": 0,
      "byteOffset": 191136,
      "componentType": 5125,
      "count": 3498,
      "type": "SCALAR"
    },
    {
      "bufferView": 2,
      "byteOffset": 774792,
      "componentType": 5126,
      "count": 2831,
      "max": [
        220.3184814453125,
        43.00422668457031,
        215.61923217773438
      ],
      "min": [
        -210.0,
        3.9917449951171875,
        45.0
      ],
      "type": "VEC3"
    },
    {
      "bufferView": 2,
      "byteOffset": 808764,
      "componentType": 5126,
      "count": 2831,
      "type": "VEC3"
    },
    {
      "bufferView": 1,
      "byteOffset": 258264,
      "componentType": 5126,
      "count": 2831,
      "type": "VEC2"
    },
    {
      "bufferView": 0,
      "byteOffset": 205128,
      "componentType": 5125,
      "count": 4725,
      "type": "SCALAR"
    },
    {
      "bufferView": 2,
      "byteOffset": 842736,
      "componentType": 5126,
      "count": 3053,
      "max": [
        40.99207305908203,
        68.12716674804688,
        109.71309661865234
      ],
      "min": [
        -40.99207305908203,
        3.8829383850097656,
        -75.99208068847656
      ],
      "type": "VEC3"
    },
    {
      "bufferView": 2,
      "byteOffset": 879372,
      "componentType": 5126,
      "count": 3053,
      "type": "VEC3"
    },
    {
      "bufferView": 1,
      "byteOffset": 280912,
      "componentType": 5126,
      "count": 3053,
      "type": "VEC2"
    },
    {
      "bufferView": 0,
      "byteOffset": 224028,
      "componentType": 5125,
      "count": 8490,
      "type": "SCALAR"
    },
    {
      "bufferView": 2,
      "byteOffset": 916008,
      "componentType": 5126,
      "count": 220,
      "max": [
        12.441764831542969,
        13.554667472839355,
        104.99998474121094
      ],
      "min": [
        -12.441764831542969,
        3.999999761581421,
        -75.00717163085938
      ],
      "type": "VEC3"
    },
    {
      "bufferView": 2,
      "byteOffset": 918648,
      "componentType": 5126,
      "count": 220,
      "type": "VEC3"
    },
    {
      "bufferView": 1,
      "byteOffset": 305336,
      "componentType": 5126,
      "count": 220,
      "type": "VEC2"
    },
    {
      "bufferView": 0,
      "byteOffset": 257988,
      "componentType": 5125,
      "count": 330,
      "type": "SCALAR"
    },
    {
      "bufferView": 2,
      "byteOffset": 921288,
      "componentType": 5126,
      "count": 20,
      "max": [
        10.0,
        13.0,
        5.0
      ],
      "min": [
        0.0,
        -2.086162567138672e-07,
        -5.0
      ],
      "type": "VEC3"
    },
    {
      "bufferView": 2,
      "byteOffset": 921528,
      "componentType": 5126,
      "count": 20,
      "type": "VEC3"
    },
    {
      "bufferView": 1,
      "byteOffset": 307096,
      "componentType": 5126,
      "count": 20,
      "type": "VEC2"
    },
    {
      "bufferView": 0,
      "byteOffset": 259308,
      "componentType": 5125,
      "count": 30,
      "type": "SCALAR"
    },
    {
      "bufferView": 2,
      "byteOffset": 921768,
      "componentType": 5126,
      "count": 2174,
      "max": [
        242.23428344726563,
        30.0,
        245.07919311523438
      ],
      "min": [
        -236.07122802734375,
        0.0,
        -245.00003051757813
      ],
      "type": "VEC3"
    },
    {
      "bufferView": 2,
      "byteOffset": 947856,
      "componentType": 5126,
      "count": 2174,
      "type": "VEC3"
    },
    {
      "bufferView": 1,
      "byteOffset": 307256,
      "componentType": 5126,
      "count": 2174,
      "type": "VEC2"
    },
    {
      "bufferView": 0,
      "byteOffset": 259428,
      "componentType": 5125,
      "count": 3321,
      "type": "SCALAR"
    },
    {
      "bufferView": 2,
      "byteOffset": 973944,
      "componentType": 5126,
      "count": 600,
      "max": [
        3.4683570861816406,
        25.924545288085938,
        -32.443199157714844
      ],
      "min": [
        -3.4683570861816406,
        18.075454711914063,
        -37.556800842285156
      ],
      "type": "VEC3"
    },
    {
      "bufferView": 2,
      "byteOffset": 981144,
      "componentType": 5126,
      "count": 600,
      "type": "VEC3"
    },
    {
      "bufferView": 1,
      "byteOffset": 324648,
      "componentType": 5126,
      "count": 600,
      "type": "VEC2"
    },
    {
      "bufferView": 0,
      "byteOffset": 272712,
      "componentType": 5125,
      "count": 1275,
      "type": "SCALAR"
    }
  ],
  "asset": {
    "generator": "fab-model-conversion",
    "version": "2.0"
  },
  "bufferViews": [
    {
      "buffer": 0,
      "byteLength": 277812,
      "target": 34963
    },
    {
      "buffer": 0,
      "byteLength": 329448,
      "byteOffset": 277812,
      "byteStride": 8,
      "target": 34962
    },
    {
      "buffer": 0,
      "byteLength": 988344,
      "byteOffset": 607260,
      "byteStride": 12,
      "target": 34962
    }
  ],
  "buffers": [
    {
      "byteLength": 1595604,
      "uri": "scene.bin"
    }
  ],
  "extensionsUsed": [
    "KHR_materials_unlit",
    "KHR_materials_emissive_strength"
  ],
  "images": [
    {
      "uri": "textures/ONen_v03_SG_baseColor.png"
    },
    {
      "uri": "textures/NhaChinh_Tien_SG_baseColor.png"
    },
    {
      "uri": "textures/NhaChinh_Meo_SG_baseColor.png"
    },
    {
      "uri": "textures/NhaChinh_Sach_SG_baseColor.png"
    },
    {
      "uri": "textures/Light_SG_baseColor.png"
    },
    {
      "uri": "textures/Light_SG_emissive.png"
    },
    {
      "uri": "textures/Water_SG_baseColor.png"
    },
    {
      "uri": "textures/ONen_v02_SG_baseColor.png"
    },
    {
      "uri": "textures/ONen_v01_SG_baseColor.png"
    },
    {
      "uri": "textures/NhaPhu_SG_baseColor.png"
    },
    {
      "uri": "textures/Tru_SG_baseColor.png"
    },
    {
      "uri": "textures/Da_SG_baseColor.png"
    }
  ],
  "materials": [
    {
      "doubleSided": true,
      "extensions": {
        "KHR_materials_unlit": {}
      },
      "name": "ONen_v03_SG",
      "pbrMetallicRoughness": {
        "baseColorTexture": {
          "index": 0
        },
        "metallicFactor": 0.0
      }
    },
    {
      "doubleSided": true,
      "extensions": {
        "KHR_materials_unlit": {}
      },
      "name": "NhaChinh_Tien_SG",
      "pbrMetallicRoughness": {
        "baseColorTexture": {
          "index": 1
        },
        "metallicFactor": 0.0
      }
    },
    {
      "doubleSided": true,
      "extensions": {
        "KHR_materials_unlit": {}
      },
      "name": "NhaChinh_Meo_SG",
      "pbrMetallicRoughness": {
        "baseColorTexture": {
          "index": 2
        },
        "metallicFactor": 0.0
      }
    },
    {
      "doubleSided": true,
      "extensions": {
        "KHR_materials_unlit": {}
      },
      "name": "NhaChinh_Sach_SG",
      "pbrMetallicRoughness": {
        "baseColorTexture": {
          "index": 3
        },
        "metallicFactor": 0.0
      }
    },
    {
      "alphaMode": "BLEND",
      "doubleSided": true,
      "emissiveFactor": [
        1.0,
        1.0,
        1.0
      ],
      "emissiveTexture": {
        "index": 5
      },
      "extensions": {
        "KHR_materials_emissive_strength": {
          "emissiveStrength": 4.007631261352415
        },
        "KHR_materials_unlit": {}
      },
      "name": "Light_SG",
      "pbrMetallicRoughness": {
        "baseColorFactor": [
          1.0,
          1.0,
          1.0,
          0.05333349587351123
        ],
        "baseColorTexture": {
          "index": 4
        },
        "metallicFactor": 0.0
      }
    },
    {
      "doubleSided": true,
      "extensions": {
        "KHR_materials_unlit": {}
      },
      "name": "Water_SG",
      "pbrMetallicRoughness": {
        "baseColorTexture": {
          "index": 6
        },
        "metallicFactor": 0.0
      }
    },
    {
      "doubleSided": true,
      "extensions": {
        "KHR_materials_unlit": {}
      },
      "name": "ONen_v02_SG",
      "pbrMetallicRoughness": {
        "baseColorTexture": {
          "index": 7
        },
        "metallicFactor": 0.0
      }
    },
    {
      "doubleSided": true,
      "extensions": {
        "KHR_materials_unlit": {}
      },
      "name": "ONen_v01_SG",
      "pbrMetallicRoughness": {
        "baseColorTexture": {
          "index": 8
        },
        "metallicFactor": 0.0
      }
    },
    {
      "doubleSided": true,
      "extensions": {
        "KHR_materials_unlit": {}
      },
      "name": "NhaPhu_SG",
      "pbrMetallicRoughness": {
        "baseColorTexture": {
          "index": 9
        },
        "metallicFactor": 0.0
      }
    },
    {
      "doubleSided": true,
      "extensions": {
        "KHR_materials_unlit": {}
      },
      "name": "Tru_SG",
      "pbrMetallicRoughness": {
        "baseColorTexture": {
          "index": 10
        },
        "metallicFactor": 0.0
      }
    },
    {
      "doubleSided": true,
      "extensions": {
        "KHR_materials_unlit": {}
      },
      "name": "Da_SG",
      "pbrMetallicRoughness": {
        "baseColorTexture": {
          "index": 11
        },
        "metallicFactor": 0.0
      }
    }
  ],
  "meshes": [
    {
      "name": "Ao_ONen_v03_SG_0",
      "primitives": [
        {
          "attributes": {
            "NORMAL": 1,
            "POSITION": 0,
            "TEXCOORD_0": 2
          },
          "indices": 3,
          "material": 0,
          "mode": 4
        }
      ]
    },
    {
      "name": "Nha_Tien_NhaChinh_Tien_SG_0",
      "primitives": [
        {
          "attributes": {
            "NORMAL": 5,
            "POSITION": 4,
            "TEXCOORD_0": 6
          },
          "indices": 7,
          "material": 1,
          "mode": 4
        }
      ]
    },
    {
      "name": "Nha_Meo_NhaChinh_Meo_SG_0",
      "primitives": [
        {
          "attributes": {
            "NORMAL": 9,
            "POSITION": 8,
            "TEXCOORD_0": 10
          },
          "indices": 11,
          "material": 2,
          "mode": 4
        }
      ]
    },
    {
      "name": "Nha_Sach_NhaChinh_Sach_SG_0",
      "primitives": [
        {
          "attributes": {
            "NORMAL": 13,
            "POSITION": 12,
            "TEXCOORD_0": 14
          },
          "indices": 15,
          "material": 3,
          "mode": 4
        }
      ]
    },
    {
      "name": "Light_Light_SG_0",
      "primitives": [
        {
          "attributes": {
            "NORMAL": 17,
            "POSITION": 16,
            "TEXCOORD_0": 18
          },
          "indices": 19,
          "material": 4,
          "mode": 4
        }
      ]
    },
    {
      "name": "Water_Water_SG_0",
      "primitives": [
        {
          "attributes": {
            "NORMAL": 21,
            "POSITION": 20,
            "TEXCOORD_0": 22
          },
          "indices": 23,
          "material": 5,
          "mode": 4
        }
      ]
    },
    {
      "name": "O_Nen_L1_ONen_v02_SG_0",
      "primitives": [
        {
          "attributes": {
            "NORMAL": 25,
            "POSITION": 24,
            "TEXCOORD_0": 26
          },
          "indices": 27,
          "material": 6,
          "mode": 4
        }
      ]
    },
    {
      "name": "nen1_ONen_v01_SG_0",
      "primitives": [
        {
          "attributes": {
            "NORMAL": 29,
            "POSITION": 28,
            "TEXCOORD_0": 30
          },
          "indices": 31,
          "material": 7,
          "mode": 4
        }
      ]
    },
    {
      "name": "O1_ONen_v01_SG_0",
      "primitives": [
        {
          "attributes": {
            "NORMAL": 33,
            "POSITION": 32,
            "TEXCOORD_0": 34
          },
          "indices": 35,
          "material": 7,
          "mode": 4
        }
      ]
    },
    {
      "name": "CauThanh1_ONen_v01_SG_0",
      "primitives": [
        {
          "attributes": {
            "NORMAL": 37,
            "POSITION": 36,
            "TEXCOORD_0": 38
          },
          "indices": 39,
          "material": 7,
          "mode": 4
        }
      ]
    },
    {
      "name": "LaSen1_ONen_v03_SG_0",
      "primitives": [
        {
          "attributes": {
            "NORMAL": 41,
            "POSITION": 40,
            "TEXCOORD_0": 42
          },
          "indices": 43,
          "material": 0,
          "mode": 4
        }
      ]
    },
    {
      "name": "NhaPhu1_NhaPhu_SG_0",
      "primitives": [
        {
          "attributes": {
            "NORMAL": 45,
            "POSITION": 44,
            "TEXCOORD_0": 46
          },
          "indices": 47,
          "material": 8,
          "mode": 4
        }
      ]
    },
    {
      "name": "Tru1_Tru_SG_0",
      "primitives": [
        {
          "attributes": {
            "NORMAL": 49,
            "POSITION": 48,
            "TEXCOORD_0": 50
          },
          "indices": 51,
          "material": 9,
          "mode": 4
        }
      ]
    },
    {
      "name": "GachDai1_ONen_v02_SG_0",
      "primitives": [
        {
          "attributes": {
            "NORMAL": 53,
            "POSITION": 52,
            "TEXCOORD_0": 54
          },
          "indices": 55,
          "material": 6,
          "mode": 4
        }
      ]
    },
    {
      "name": "GachDai1_ONen_v01_SG_0",
      "primitives": [
        {
          "attributes": {
            "NORMAL": 57,
            "POSITION": 56,
            "TEXCOORD_0": 58
          },
          "indices": 59,
          "material": 7,
          "mode": 4
        }
      ]
    },
    {
      "name": "Da1_Da_SG_0",
      "primitives": [
        {
          "attributes": {
            "NORMAL": 61,
            "POSITION": 60,
            "TEXCOORD_0": 62
          },
          "indices": 63,
          "material": 10,
          "mode": 4
        }
      ]
    },
    {
      "name": "Da1_NhaChinh_Tien_SG_0",
      "primitives": [
        {
          "attributes": {
            "NORMAL": 65,
            "POSITION": 64,
            "TEXCOORD_0": 66
          },
          "indices": 67,
          "material": 1,
          "mode": 4
        }
      ]
    }
  ],
  "nodes": [
    {
      "children": [
        1
      ],
      "matrix": [
        1.0,
        0.0,
        0.0,
        0.0,
        0.0,
        2.220446049250313e-16,
        -1.0,
        0.0,
        0.0,
        1.0,
        2.220446049250313e-16,
        0.0,
        0.0,
        0.0,
        0.0,
        1.0
      ],
      "name": "Sketchfab_model"
    },
    {
      "children": [
        2
      ],
      "matrix": [
        0.009999999776482582,
        0.0,
        0.0,
        0.0,
        0.0,
        0.0,
        0.009999999776482582,
        0.0,
        0.0,
        -0.009999999776482582,
        0.0,
        0.0,
        0.0,
        0.0,
        0.0,
        1.0
      ],
      "name": "abe4b3fd72424b4b90bd350f9e9c2396.fbx"
    },
    {
      "children": [
        3,
        5,
        7,
        9,
        11,
        13,
        15,
        17,
        19,
        21,
        23,
        25,
        27,
        29,
        32
      ],
      "name": "RootNode"
    },
    {
      "children": [
        4
      ],
      "name": "Ao"
    },
    {
      "mesh": 0,
      "name": "Ao_ONen_v03_SG_0"
    },
    {
      "children": [
        6
      ],
      "name": "Nha_Tien"
    },
    {
      "mesh": 1,
      "name": "Nha_Tien_NhaChinh_Tien_SG_0"
    },
    {
      "children": [
        8
      ],
      "name": "Nha_Meo"
    },
    {
      "mesh": 2,
      "name": "Nha_Meo_NhaChinh_Meo_SG_0"
    },
    {
      "children": [
        10
      ],
      "name": "Nha_Sach"
    },
    {
      "mesh": 3,
      "name": "Nha_Sach_NhaChinh_Sach_SG_0"
    },
    {
      "children": [
        12
      ],
      "name": "Light"
    },
    {
      "mesh": 4,
      "name": "Light_Light_SG_0"
    },
    {
      "children": [
        14
      ],
      "name": "Water"
    },
    {
      "mesh": 5,
      "name": "Water_Water_SG_0"
    },
    {
      "children": [
        16
      ],
      "name": "O_Nen_L1"
    },
    {
      "mesh": 6,
      "name": "O_Nen_L1_ONen_v02_SG_0"
    },
    {
      "children": [
        18
      ],
      "name": "nen1"
    },
    {
      "mesh": 7,
      "name": "nen1_ONen_v01_SG_0"
    },
    {
      "children": [
        20
      ],
      "name": "O1"
    },
    {
      "mesh": 8,
      "name": "O1_ONen_v01_SG_0"
    },
    {
      "children": [
        22
      ],
      "name": "CauThanh1"
    },
    {
      "mesh": 9,
      "name": "CauThanh1_ONen_v01_SG_0"
    },
    {
      "children": [
        24
      ],
      "name": "LaSen1"
    },
    {
      "mesh": 10,
      "name": "LaSen1_ONen_v03_SG_0"
    },
    {
      "children": [
        26
      ],
      "name": "NhaPhu1"
    },
    {
      "mesh": 11,
      "name": "NhaPhu1_NhaPhu_SG_0"
    },
    {
      "children": [
        28
      ],
      "name": "Tru1"
    },
    {
      "mesh": 12,
      "name": "Tru1_Tru_SG_0"
    },
    {
      "children": [
        30,
        31
      ],
      "name": "GachDai1"
    },
    {
      "mesh": 13,
      "name": "GachDai1_ONen_v02_SG_0"
    },
    {
      "mesh": 14,
      "name": "GachDai1_ONen_v01_SG_0"
    },
    {
      "children": [
        33,
        34
      ],
      "name": "Da1"
    },
    {
      "mesh": 15,
      "name": "Da1_Da_SG_0"
    },
    {
      "mesh": 16,
      "name": "Da1_NhaChinh_Tien_SG_0"
    }
  ],
  "samplers": [
    {
      "magFilter": 9729,
      "minFilter": 9987,
      "wrapS": 10497,
      "wrapT": 10497
    }
  ],
  "scene": 0,
  "scenes": [
    {
      "name": "Sketchfab_Scene",
      "nodes": [
        0
      ]
    }
  ],
  "textures": [
    {
      "sampler": 0,
      "source": 0
    },
    {
      "sampler": 0,
      "source": 1
    },
    {
      "sampler": 0,
      "source": 2
    },
    {
      "sampler": 0,
      "source": 3
    },
    {
      "sampler": 0,
      "source": 4
    },
    {
      "sampler": 0,
      "source": 5
    },
    {
      "sampler": 0,
      "source": 6
    },
    {
      "sampler": 0,
      "source": 7
    },
    {
      "sampler": 0,
      "source": 8
    },
    {
      "sampler": 0,
      "source": 9
    },
    {
      "sampler": 0,
      "source": 10
    },
    {
      "sampler": 0,
      "source": 11
    }
  ]
}
