{
  "accessors": [
    {
      "bufferView": 2,
      "componentType": 5126,
      "count": 2496,
      "max": [
        14.171038627624512,
        19.041202545166016,
        12.453627586364746
      ],
      "min": [
        -13.984944343566895,
        -3.52508807182312,
        -5.867005348205566
      ],
      "type": "VEC3"
    },
    {
      "bufferView": 2,
      "byteOffset": 29952,
      "componentType": 5126,
      "count": 2496,
      "type": "VEC3"
    },
    {
      "bufferView": 1,
      "componentType": 5126,
      "count": 2496,
      "type": "VEC2"
    },
    {
      "bufferView": 1,
      "byteOffset": 19968,
      "componentType": 5126,
      "count": 2496,
      "type": "VEC2"
    },
    {
      "bufferView": 0,
      "componentType": 5125,
      "count": 3840,
      "type": "SCALAR"
    },
    {
      "bufferView": 2,
      "byteOffset": 59904,
      "componentType": 5126,
      "count": 950,
      "max": [
        16.550945281982422,
        23.927284240722656,
        8.007330894470215
      ],
      "min": [
        -16.968969345092773,
        -4.530596733093262,
        -6.259664535522461
      ],
      "type": "VEC3"
    },
    {
      "bufferView": 2,
      "byteOffset": 71304,
      "componentType": 5126,
      "count": 950,
      "type": "VEC3"
    },
    {
      "bufferView": 1,
      "byteOffset": 39936,
      "componentType": 5126,
      "count": 950,
      "type": "VEC2"
    },
    {
      "bufferView": 1,
      "byteOffset": 47536,
      "componentType": 5126,
      "count": 950,
      "type": "VEC2"
    },
    {
      "bufferView": 0,
      "byteOffset": 15360,
      "componentType": 5125,
      "count": 1428,
      "type": "SCALAR"
    },
    {
      "bufferView": 2,
      "byteOffset": 82704,
      "componentType": 5126,
      "count": 984,
      "max": [
        15.883216857910156,
        25.883758544921875,
        7.709400653839111
      ],
      "min": [
        -15.586670875549316,
        -2.0500786304473877,
        -6.711295127868652
      ],
      "type": "VEC3"
    },
    {
      "bufferView": 2,
      "byteOffset": 94512,
      "componentType": 5126,
      "count": 984,
      "type": "VEC3"
    },
    {
      "bufferView": 1,
      "byteOffset": 55136,
      "componentType": 5126,
      "count": 984,
      "type": "VEC2"
    },
    {
      "bufferView": 1,
      "byteOffset": 63008,
      "componentType": 5126,
      "count": 984,
      "type": "VEC2"
    },
    {
      "bufferView": 0,
      "byteOffset": 21072,
      "componentType": 5125,
      "count": 1476,
      "type": "SCALAR"
    },
    {
      "bufferView": 2,
      "byteOffset": 106320,
      "componentType": 5126,
      "count": 912,
      "max": [
        23.825639724731445,
        25.960342407226563,
        8.513733863830566
      ],
      "min": [
        -20.563491821289063,
        -2.1905903816223145,
        -7.225012302398682
      ],
      "type": "VEC3"
    },
    {
      "bufferView": 2,
      "byteOffset": 117264,
      "componentType": 5126,
      "count": 912,
      "type": "VEC3"
    },
    {
      "bufferView": 1,
      "byteOffset": 70880,
      "componentType": 5126,
      "count": 912,
      "type": "VEC2"
    },
    {
      "bufferView": 1,
      "byteOffset": 78176,
      "componentType": 5126,
      "count": 912,
      "type": "VEC2"
    },
    {
      "bufferView": 0,
      "byteOffset": 26976,
      "componentType": 5125,
      "count": 1368,
      "type": "SCALAR"
    },
    {
      "bufferView": 2,
      "byteOffset": 128208,
      "componentType": 5126,
      "count": 1350,
      "max": [
        23.27883529663086,
        26.988483428955078,
        10.654877662658691
      ],
      "min": [
        -22.71443748474121,
        -3.457306385040283,
        -6.753083229064941
      ],
      "type": "VEC3"
    },
    {
      "bufferView": 2,
      "byteOffset": 144408,
      "componentType": 5126,
      "count": 1350,
      "type": "VEC3"
    },
    {
      "bufferView": 1,
      "byteOffset": 85472,
      "componentType": 5126,
      "count": 1350,
      "type": "VEC2"
    },
    {
      "bufferView": 1,
      "byteOffset": 96272,
      "componentType": 5126,
      "count": 1350,
      "type": "VEC2"
    },
    {
      "bufferView": 0,
      "byteOffset": 32448,
      "componentType": 5125,
      "count": 2028,
      "type": "SCALAR"
    },
    {
      "bufferView": 2,
      "byteOffset": 160608,
      "componentType": 5126,
      "count": 1342,
      "max": [
        30.240129470825195,
        44.26930618286133,
        40.20946502685547
      ],
      "min": [
        -41.713836669921875,
        -8.500434875488281,
        -9.009171485900879
      ],
      "type": "VEC3"
    },
    {
      "bufferView": 2,
      "byteOffset": 176712,
      "componentType": 5126,
      "count": 1342,
      "type": "VEC3"
    },
    {
      "bufferView": 1,
      "byteOffset": 107072,
      "componentType": 5126,
      "count": 1342,
      "type": "VEC2"
    },
    {
      "bufferView": 1,
      "byteOffset": 117808,
      "componentType": 5126,
      "count": 1342,
      "type": "VEC2"
    },
    {
      "bufferView": 0,
      "byteOffset": 40560,
      "componentType": 5125,
      "count": 2016,
      "type": "SCALAR"
    },
    {
      "bufferView": 2,
      "byteOffset": 192816,
      "componentType": 5126,
      "count": 1103,
      "max": [
        31.684131622314453,
        44.29157257080078,
        30.152973175048828
      ],
      "min": [
        -20.81501007080078,
        -2.860168933868408,
        -15.058256149291992
      ],
      "type": "VEC3"
    },
    {
      "bufferView": 2,
      "byteOffset": 206052,
      "componentType": 5126,
      "count": 1103,
      "type": "VEC3"
    },
    {
      "bufferView": 1,
      "byteOffset": 128544,
      "componentType": 5126,
      "count": 1103,
      "type": "VEC2"
    },
    {
      "bufferView": 1,
      "byteOffset": 137368,
      "componentType": 5126,
      "count": 1103,
      "type": "VEC2"
    },
    {
      "bufferView": 0,
      "byteOffset": 48624,
      "componentType": 5125,
      "count": 1728,
      "type": "SCALAR"
    },
    {
      "bufferView": 2,
      "byteOffset": 219288,
      "componentType": 5126,
      "count": 1058,
      "max": [
        26.616811752319336,
        47.52570343017578,
        29.840682983398438
      ],
      "min": [
        -30.6917724609375,
        -4.198968410491943,
        -20.393503189086914
      ],
      "type": "VEC3"
    },
    {
      "bufferView": 2,
      "byteOffset": 231984,
      "componentType": 5126,
      "count": 1058,
      "type": "VEC3"
    },
    {
      "bufferView": 1,
      "byteOffset": 146192,
      "componentType": 5126,
      "count": 1058,
      "type": "VEC2"
    },
    {
      "bufferView": 1,
      "byteOffset": 154656,
      "componentType": 5126,
      "count": 1058,
      "type": "VEC2"
    },
    {
      "bufferView": 0,
      "byteOffset": 55536,
      "componentType": 5125,
      "count": 1632,
      "type": "SCALAR"
    },
    {
      "bufferView": 2,
      "byteOffset": 244680,
      "componentType": 5126,
      "count": 1696,
      "max": [
        25.924449920654297,
        57.85456848144531,
        25.75490379333496
      ],
      "min": [
        -21.667329788208008,
        -1.602044939994812,
        -20.434886932373047
      ],
      "type": "VEC3"
    },
    {
      "bufferView": 2,
      "byteOffset": 265032,
      "componentType": 5126,
      "count": 1696,
      "type": "VEC3"
    },
    {
      "bufferView": 1,
      "byteOffset": 163120,
      "componentType": 5126,
      "count": 1696,
      "type": "VEC2"
    },
    {
      "bufferView": 1,
      "byteOffset": 176688,
      "componentType": 5126,
      "count": 1696,
      "type": "VEC2"
    },
    {
      "bufferView": 0,
      "byteOffset": 62064,
      "componentType": 5125,
      "count": 2736,
      "type": "SCALAR"
    },
    {
      "bufferView": 2,
      "byteOffset": 285384,
      "componentType": 5126,
      "count": 240,
      "max": [
        6.641511917114258,
        9.314079284667969,
        7.407054901123047
      ],
      "min": [
        -7.79768705368042,
        -0.3821253180503845,
        -6.9854207038879395
      ],
      "type": "VEC3"
    },
    {
      "bufferView": 2,
      "byteOffset": 288264,
      "componentType": 5126,
      "count": 240,
      "type": "VEC3"
    },
    {
      "bufferView": 1,
      "byteOffset": 190256,
      "componentType": 5126,
      "count": 240,
      "type": "VEC2"
    },
    {
      "bufferView": 1,
      "byteOffset": 192176,
      "componentType": 5126,
      "count": 240,
      "type": "VEC2"
    },
    {
      "bufferView": 0,
      "byteOffset": 73008,
      "componentType": 5125,
      "count": 240,
      "type": "SCALAR"
    },
    {
      "bufferView": 2,
      "byteOffset": 291144,
      "componentType": 5126,
      "count": 238,
      "max": [
        5.485661506652832,
        9.831727981567383,
        6.607355117797852
      ],
      "min": [
        -6.955594062805176,
        -0.34363093972206116,
        -8.277426719665527
      ],
      "type": "VEC3"
    },
    {
      "bufferView": 2,
      "byteOffset": 294000,
      "componentType": 5126,
      "count": 238,
      "type": "VEC3"
    },
    {
      "bufferView": 1,
      "byteOffset": 194096,
      "componentType": 5126,
      "count": 238,
      "type": "VEC2"
    },
    {
      "bufferView": 1,
      "byteOffset": 196000,
      "componentType": 5126,
      "count": 238,
      "type": "VEC2"
    },
    {
      "bufferView": 0,
      "byteOffset": 73968,
      "componentType": 5125,
      "count": 240,
      "type": "SCALAR"
    },
    {
      "bufferView": 2,
      "byteOffset": 296856,
      "componentType": 5126,
      "count": 238,
      "max": [
        8.937582015991211,
        10.165513038635254,
        6.181379318237305
      ],
      "min": [
        -8.676709175109863,
        -0.5478726625442505,
        -6.583199977874756
      ],
      "type": "VEC3"
    },
    {
      "bufferView": 2,
      "byteOffset": 299712,
      "componentType": 5126,
      "count": 238,
      "type": "VEC3"
    },
    {
      "bufferView": 1,
      "byteOffset": 197904,
      "componentType": 5126,
      "count": 238,
      "type": "VEC2"
    },
    {
      "bufferView": 1,
      "byteOffset": 199808,
      "componentType": 5126,
      "count": 238,
      "type": "VEC2"
    },
    {
      "bufferView": 0,
      "byteOffset": 74928,
      "componentType": 5125,
      "count": 240,
      "type": "SCALAR"
    },
    {
      "bufferView": 2,
      "byteOffset": 302568,
      "componentType": 5126,
      "count": 240,
      "max": [
        9.100250244140625,
        13.805307388305664,
        5.024737358093262
      ],
      "min": [
        -6.9576921463012695,
        -0.4950830340385437,
        -5.818894863128662
      ],
      "type": "VEC3"
    },
    {
      "bufferView": 2,
      "byteOffset": 305448,
      "componentType": 5126,
      "count": 240,
      "type": "VEC3"
    },
    {
      "bufferView": 1,
      "byteOffset": 201712,
      "componentType": 5126,
      "count": 240,
      "type": "VEC2"
    },
    {
      "bufferView": 1,
      "byteOffset": 203632,
      "componentType": 5126,
      "count": 240,
      "type": "VEC2"
    },
    {
      "bufferView": 0,
      "byteOffset": 75888,
      "componentType": 5125,
      "count": 240,
      "type": "SCALAR"
    },
    {
      "bufferView": 2,
      "byteOffset": 308328,
      "componentType": 5126,
      "count": 282,
      "max": [
        11.647951126098633,
        10.625865936279297,
        8.05813980102539
      ],
      "min": [
        -9.727327346801758,
        -0.8268568515777588,
        -9.867677688598633
      ],
      "type": "VEC3"
    },
    {
      "bufferView": 2,
      "byteOffset": 311712,
      "componentType": 5126,
      "count": 282,
      "type": "VEC3"
    },
    {
      "bufferView": 1,
      "byteOffset": 205552,
      "componentType": 5126,
      "count": 282,
      "type": "VEC2"
    },
    {
      "bufferView": 0,
      "byteOffset": 76848,
      "componentType": 5125,
      "count": 306,
      "type": "SCALAR"
    },
    {
      "bufferView": 2,
      "byteOffset": 315096,
      "componentType": 5126,
      "count": 613,
      "max": [
        12.12216567993164,
        9.765315055847168,
        7.598507881164551
      ],
      "min": [
        -12.258002281188965,
        -0.397266149520874,
        -8.286958694458008
      ],
      "type": "VEC3"
    },
    {
      "bufferView": 2,
      "byteOffset": 322452,
      "componentType": 5126,
      "count": 613,
      "type": "VEC3"
    },
    {
      "bufferView": 1,
      "byteOffset": 207808,
      "componentType": 5126,
      "count": 613,
      "type": "VEC2"
    },
    {
      "bufferView": 1,
      "byteOffset": 212712,
      "componentType": 5126,
      "count": 613,
      "type": "VEC2"
    },
    {
      "bufferView": 0,
      "byteOffset": 78072,
      "componentType": 5125,
      "count": 960,
      "type": "SCALAR"
    },
    {
      "bufferView": 2,
      "byteOffset": 329808,
      "componentType": 5126,
      "count": 785,
      "max": [
        10.258172035217285,
        14.592403411865234,
        9.047340393066406
      ],
      "min": [
        -7.489257335662842,
        -0.4998558461666107,
        -5.544403553009033
      ],
      "type": "VEC3"
    },
    {
      "bufferView": 2,
      "byteOffset": 339228,
      "componentType": 5126,
      "count": 785,
      "type": "VEC3"
    },
    {
      "bufferView": 1,
      "byteOffset": 217616,
      "componentType": 5126,
      "count": 785,
      "type": "VEC2"
    },
    {
      "bufferView": 1,
      "byteOffset": 223896,
      "componentType": 5126,
      "count": 785,
      "type": "VEC2"
    },
    {
      "bufferView": 0,
      "byteOffset": 81912,
      "componentType": 5125,
      "count": 1122,
      "type": "SCALAR"
    },
    {
      "bufferView": 2,
      "byteOffset": 348648,
      "componentType": 5126,
      "count": 238,
      "max": [
        5.372213363647461,
        8.063652992248535,
        4.968194007873535
      ],
      "min": [
        -4.586862564086914,
        -0.4499609172344208,
        -3.577894926071167
      ],
      "type": "VEC3"
    },
    {
      "bufferView": 2,
      "byteOffset": 351504,
      "componentType": 5126,
      "count": 238,
      "type": "VEC3"
    },
    {
      "bufferView": 1,
      "byteOffset": 230176,
      "componentType": 5126,
      "count": 238,
      "type": "VEC2"
    },
    {
      "bufferView": 1,
      "byteOffset": 232080,
      "componentType": 5126,
      "count": 238,
      "type": "VEC2"
    },
    {
      "bufferView": 0,
      "byteOffset": 86400,
      "componentType": 5125,
      "count": 240,
      "type": "SCALAR"
    },
    {
      "bufferView": 2,
      "byteOffset": 354360,
      "componentType": 5126,
      "count": 328,
      "max": [
        3.493267297744751,
        6.683011054992676,
        6.132362365722656
      ],
      "min": [
        -3.5831410884857178,
        -0.6130824089050293,
        -6.017168998718262
      ],
      "type": "VEC3"
    },
    {
      "bufferView": 2,
      "byteOffset": 358296,
      "componentType": 5126,
      "count": 328,
      "type": "VEC3"
    },
    {
      "bufferView": 1,
      "byteOffset": 233984,
      "componentType": 5126,
      "count": 328,
      "type": "VEC2"
    },
    {
      "bufferView": 1,
      "byteOffset": 236608,
      "componentType": 5126,
      "count": 328,
      "type": "VEC2"
    },
    {
      "bufferView": 0,
      "byteOffset": 87360,
      "componentType": 5125,
      "count": 372,
      "type": "SCALAR"
    },
    {
      "bufferView": 2,
      "byteOffset": 362232,
      "componentType": 5126,
      "count": 388,
      "max": [
        4.931556224822998,
        5.791049957275391,
        6.0875349044799805
      ],
      "min": [
        -5.106951713562012,
        -0.42952075600624084,
        -6.098666191101074
      ],
      "type": "VEC3"
    },
    {
      "bufferView": 2,
      "byteOffset": 366888,
      "componentType": 5126,
      "count": 388,
      "type": "VEC3"
    },
    {
      "bufferView": 1,
      "byteOffset": 239232,
      "componentType": 5126,
      "count": 388,
      "type": "VEC2"
    },
    {
      "bufferView": 1,
      "byteOffset": 242336,
      "componentType": 5126,
      "count": 388,
      "type": "VEC2"
    },
    {
      "bufferView": 0,
      "byteOffset": 88848,
      "componentType": 5125,
      "count": 462,
      "type": "SCALAR"
    }
  ],
  "asset": {
    "version": "2.0"
  },
  "bufferViews": [
    {
      "buffer": 0,
      "byteLength": 90696,
      "target": 34963
    },
    {
      "buffer": 0,
      "byteLength": 245440,
      "byteOffset": 90696,
      "byteStride": 8,
      "target": 34962
    },
    {
      "buffer": 0,
      "byteLength": 371544,
      "byteOffset": 336136,
      "byteStride": 12,
      "target": 34962
    }
  ],
  "buffers": [
    {
      "byteLength": 707680,
      "uri": "scene.bin"
    }
  ],
  "images": [
    {
      "uri": "textures/Material.013_BaseColor.jpeg"
    }
  ],
  "materials": [
    {
      "doubleSided": true,
      "name": "Material.013",
      "pbrMetallicRoughness": {
        "baseColorTexture": {
          "index": 0
        },
        "metallicFactor": 0.0,
        "roughnessFactor": 0.5
      }
    },
    {
      "doubleSided": true,
      "name": "Material.005",
      "pbrMetallicRoughness": {
        "baseColorTexture": {
          "index": 0
        },
        "metallicFactor": 0.0,
        "roughnessFactor": 0.400000006
      }
    },
    {
      "doubleSided": true,
      "name": "Material.001",
      "pbrMetallicRoughness": {
        "baseColorTexture": {
          "index": 0
        },
        "metallicFactor": 0.0,
        "roughnessFactor": 0.400000006
      }
    },
    {
      "doubleSided": true,
      "name": "Material.004",
      "pbrMetallicRoughness": {
        "baseColorTexture": {
          "index": 0
        },
        "metallicFactor": 0.0,
        "roughnessFactor": 0.400000006
      }
    },
    {
      "doubleSided": true,
      "name": "Material.002",
      "pbrMetallicRoughness": {
        "baseColorTexture": {
          "index": 0
        },
        "metallicFactor": 0.0,
        "roughnessFactor": 0.400000006
      }
    },
    {
      "doubleSided": true,
      "name": "Material.011",
      "pbrMetallicRoughness": {
        "baseColorTexture": {
          "index": 0
        },
        "metallicFactor": 0.0,
        "roughnessFactor": 0.5
      }
    },
    {
      "doubleSided": true,
      "name": "Material.016",
      "pbrMetallicRoughness": {
        "baseColorTexture": {
          "index": 0
        },
        "metallicFactor": 0.0,
        "roughnessFactor": 0.5
      }
    },
    {
      "doubleSided": true,
      "name": "Material.007",
      "pbrMetallicRoughness": {
        "baseColorTexture": {
          "index": 0
        },
        "metallicFactor": 0.0,
        "roughnessFactor": 0.400000006
      }
    },
    {
      "doubleSided": true,
      "name": "Material.012",
      "pbrMetallicRoughness": {
        "baseColorTexture": {
          "index": 0
        },
        "metallicFactor": 0.0,
        "roughnessFactor": 0.5
      }
    },
    {
      "doubleSided": true,
      "name": "Material",
      "pbrMetallicRoughness": {
        "baseColorTexture": {
          "index": 0
        },
        "metallicFactor": 0.0,
        "roughnessFactor": 0.400000006
      }
    },
    {
      "doubleSided": true,
      "name": "Material.019",
      "pbrMetallicRoughness": {
        "baseColorTexture": {
          "index": 0
        },
        "metallicFactor": 0.0,
        "roughnessFactor": 0.5
      }
    },
    {
      "doubleSided": true,
      "name": "Material.017",
      "pbrMetallicRoughness": {
        "baseColorTexture": {
          "index": 0
        },
        "metallicFactor": 0.0,
        "roughnessFactor": 0.5
      }
    },
    {
      "doubleSided": true,
      "name": "Material.006",
      "pbrMetallicRoughness": {
        "baseColorTexture": {
          "index": 0
        },
        "metallicFactor": 0.0,
        "roughnessFactor": 0.400000006
      }
    },
    {
      "doubleSided": true,
      "name": "Material.009",
      "pbrMetallicRoughness": {
        "baseColorTexture": {
          "index": 0
        },
        "metallicFactor": 0.0,
        "roughnessFactor": 0.5
      }
    },
    {
      "doubleSided": true,
      "name": "Material.010",
      "pbrMetallicRoughness": {
        "baseColorTexture": {
          "index": 0
        },
        "metallicFactor": 0.0,
        "roughnessFactor": 0.5
      }
    },
    {
      "doubleSided": true,
      "name": "Material.015",
      "pbrMetallicRoughness": {
        "baseColorTexture": {
          "index": 0
        },
        "metallicFactor": 0.0,
        "roughnessFactor": 0.5
      }
    },
    {
      "doubleSided": true,
      "name": "Material.018",
      "pbrMetallicRoughness": {
        "baseColorTexture": {
          "index": 0
        },
        "metallicFactor": 0.0,
        "roughnessFactor": 0.5
      }
    },
    {
      "doubleSided": true,
      "name": "Material.003",
      "pbrMetallicRoughness": {
        "baseColorTexture": {
          "index": 0
        },
        "metallicFactor": 0.0,
        "roughnessFactor": 0.400000006
      }
    },
    {
      "doubleSided": true,
      "name": "Material.008",
      "pbrMetallicRoughness": {
        "baseColorTexture": {
          "index": 0
        },
        "metallicFactor": 0.0,
        "roughnessFactor": 0.400000006
      }
    }
  ],
  "meshes": [
    {
      "name": "Object_0",
      "primitives": [
        {
          "attributes": {
            "NORMAL": 1,
            "POSITION": 0,
            "TEXCOORD_0": 2,
            "TEXCOORD_1": 3
          },
          "indices": 4,
          "material": 9,
          "mode": 4
        }
      ]
    },
    {
      "name": "Object_1",
      "primitives": [
        {
          "attributes": {
            "NORMAL": 6,
            "POSITION": 5,
            "TEXCOORD_0": 7,
            "TEXCOORD_1": 8
          },
          "indices": 9,
          "material": 2,
          "mode": 4
        }
      ]
    },
    {
      "name": "Object_2",
      "primitives": [
        {
          "attributes": {
            "NORMAL": 11,
            "POSITION": 10,
            "TEXCOORD_0": 12,
            "TEXCOORD_1": 13
          },
          "indices": 14,
          "material": 4,
          "mode": 4
        }
      ]
    },
    {
      "name": "Object_3",
      "primitives": [
        {
          "attributes": {
            "NORMAL": 16,
            "POSITION": 15,
            "TEXCOORD_0": 17,
            "TEXCOORD_1": 18
          },
          "indices": 19,
          "material": 17,
          "mode": 4
        }
      ]
    },
    {
      "name": "Object_4",
      "primitives": [
        {
          "attributes": {
            "NORMAL": 21,
            "POSITION": 20,
            "TEXCOORD_0": 22,
            "TEXCOORD_1": 23
          },
          "indices": 24,
          "material": 3,
          "mode": 4
        }
      ]
    },
    {
      "name": "Object_5",
      "primitives": [
        {
          "attributes": {
            "NORMAL": 26,
            "POSITION": 25,
            "TEXCOORD_0": 27,
            "TEXCOORD_1": 28
          },
          "indices": 29,
          "material": 1,
          "mode": 4
        }
      ]
    },
    {
      "name": "Object_6",
      "primitives": [
        {
          "attributes": {
            "NORMAL": 31,
            "POSITION": 30,
            "TEXCOORD_0": 32,
            "TEXCOORD_1": 33
          },
          "indices": 34,
          "material": 12,
          "mode": 4
        }
      ]
    },
    {
      "name": "Object_7",
      "primitives": [
        {
          "attributes": {
            "NORMAL": 36,
            "POSITION": 35,
            "TEXCOORD_0": 37,
            "TEXCOORD_1": 38
          },
          "indices": 39,
          "material": 7,
          "mode": 4
        }
      ]
    },
    {
      "name": "Object_8",
      "primitives": [
        {
          "attributes": {
            "NORMAL": 41,
            "POSITION": 40,
            "TEXCOORD_0": 42,
            "TEXCOORD_1": 43
          },
          "indices": 44,
          "material": 18,
          "mode": 4
        }
      ]
    },
    {
      "name": "Object_9",
      "primitives": [
        {
          "attributes": {
            "NORMAL": 46,
            "POSITION": 45,
            "TEXCOORD_0": 47,
            "TEXCOORD_1": 48
          },
          "indices": 49,
          "material": 13,
          "mode": 4
        }
      ]
    },
    {
      "name": "Object_10",
      "primitives": [
        {
          "attributes": {
            "NORMAL": 51,
            "POSITION": 50,
            "TEXCOORD_0": 52,
            "TEXCOORD_1": 53
          },
          "indices": 54,
          "material": 14,
          "mode": 4
        }
      ]
    },
    {
      "name": "Object_11",
      "primitives": [
        {
          "attributes": {
            "NORMAL": 56,
            "POSITION": 55,
            "TEXCOORD_0": 57,
            "TEXCOORD_1": 58
          },
          "indices": 59,
          "material": 5,
          "mode": 4
        }
      ]
    },
    {
      "name": "Object_12",
      "primitives": [
        {
          "attributes": {
            "NORMAL": 61,
            "POSITION": 60,
            "TEXCOORD_0": 62,
            "TEXCOORD_1": 63
          },
          "indices": 64,
          "material": 8,
          "mode": 4
        }
      ]
    },
    {
      "name": "Object_13",
      "primitives": [
        {
          "attributes": {
            "NORMAL": 66,
            "POSITION": 65,
            "TEXCOORD_0": 67
          },
          "indices": 68,
          "material": 0,
          "mode": 4
        }
      ]
    },
    {
      "name": "Object_14",
      "primitives": [
        {
          "attributes": {
            "NORMAL": 70,
            "POSITION": 69,
            "TEXCOORD_0": 71,
            "TEXCOORD_1": 72
          },
          "indices": 73,
          "material": 15,
          "mode": 4
        }
      ]
    },
    {
      "name": "Object_15",
      "primitives": [
        {
          "attributes": {
            "NORMAL": 75,
            "POSITION": 74,
            "TEXCOORD_0": 76,
            "TEXCOORD_1": 77
          },
          "indices": 78,
          "material": 6,
          "mode": 4
        }
      ]
    },
    {
      "name": "Object_16",
      "primitives": [
        {
          "attributes": {
            "NORMAL": 80,
            "POSITION": 79,
            "TEXCOORD_0": 81,
            "TEXCOORD_1": 82
          },
          "indices": 83,
          "material": 11,
          "mode": 4
        }
      ]
    },
    {
      "name": "Object_17",
      "primitives": [
        {
          "attributes": {
            "NORMAL": 85,
            "POSITION": 84,
            "TEXCOORD_0": 86,
            "TEXCOORD_1": 87
          },
          "indices": 88,
          "material": 16,
          "mode": 4
        }
      ]
    },
    {
      "name": "Object_18",
      "primitives": [
        {
          "attributes": {
            "NORMAL": 90,
            "POSITION": 89,
            "TEXCOORD_0": 91,
            "TEXCOORD_1": 92
          },
          "indices": 93,
          "material": 10,
          "mode": 4
        }
      ]
    }
  ],
  "nodes": [
    {
      "children": [
        1
      ],
      "matrix": [
        1.0,
        0.0,
        0.0,
        0.0,
        0.0,
        2.220446049250313e-16,
        -1.0,
        0.0,
        0.0,
        1.0,
        2.220446049250313e-16,
        0.0,
        0.0,
        0.0,
        0.0,
        1.0
      ],
      "name": "Sketchfab_model"
    },
    {
      "children": [
        2
      ],
      "name": "root"
    },
    {
      "children": [
        3,
        5,
        7,
        9,
        11,
        13,
        15,
        17,
        19,
        21,
        23,
        25,
        27,
        29,
        31,
        33,
        35,
        37,
        39
      ],
      "matrix": [
        1.0,
        0.0,
        0.0,
        0.0,
        0.0,
        2.220446049250313e-16,
        1.0,
        0.0,
        0.0,
        -1.0,
        2.220446049250313e-16,
        0.0,
        0.0,
        0.0,
        0.0,
        1.0
      ],
      "name": "GLTF_SceneRootNode"
    },
    {
      "children": [
        4
      ],
      "matrix": [
        1.0,
        0.0,
        0.0,
        0.0,
        0.0,
        1.0,
        0.0,
        0.0,
        0.0,
        0.0,
        1.0,
        0.0,
        -80.0,
        0.0,
        0.0,
        1.0
      ],
      "name": "StoneArch1_0"
    },
    {
      "mesh": 0,
      "name": "Object_4"
    },
    {
      "children": [
        6
      ],
      "matrix": [
        1.0,
        0.0,
        0.0,
        0.0,
        0.0,
        1.0,
        0.0,
        0.0,
        0.0,
        0.0,
        1.0,
        0.0,
        -46.0,
        0.0,
        0.0,
        1.0
      ],
      "name": "StoneArch2_1"
    },
    {
      "mesh": 1,
      "name": "Object_6"
    },
    {
      "children": [
        8
      ],
      "matrix": [
        1.0,
        0.0,
        0.0,
        0.0,
        0.0,
        1.0,
        0.0,
        0.0,
        0.0,
        0.0,
        1.0,
        0.0,
        -9.0,
        0.0,
        0.0,
        1.0
      ],
      "name": "StoneArch3_2"
    },
    {
      "mesh": 2,
      "name": "Object_8"
    },
    {
      "children": [
        10
      ],
      "matrix": [
        1.0,
        0.0,
        0.0,
        0.0,
        0.0,
        1.0,
        0.0,
        0.0,
        0.0,
        0.0,
        1.0,
        0.0,
        32.0,
        0.0,
        0.0,
        1.0
      ],
      "name": "StoneArch4_3"
    },
    {
      "mesh": 3,
      "name": "Object_10"
    },
    {
      "children": [
        12
      ],
      "matrix": [
        1.0,
        0.0,
        0.0,
        0.0,
        0.0,
        1.0,
        0.0,
        0.0,
        0.0,
        0.0,
        1.0,
        0.0,
        83.0,
        0.0,
        0.0,
        1.0
      ],
      "name": "StoneArch5_4"
    },
    {
      "mesh": 4,
      "name": "Object_12"
    },
    {
      "children": [
        14
      ],
      "matrix": [
        1.0,
        0.0,
        0.0,
        0.0,
        0.0,
        1.0,
        0.0,
        0.0,
        0.0,
        0.0,
        1.0,
        0.0,
        -84.0,
        0.0,
        -42.0,
        1.0
      ],
      "name": "StoneCliff1_5"
    },
    {
      "mesh": 5,
      "name": "Object_14"
    },
    {
      "children": [
        16
      ],
      "matrix": [
        1.0,
        0.0,
        0.0,
        0.0,
        0.0,
        1.0,
        0.0,
        0.0,
        0.0,
        0.0,
        1.0,
        0.0,
        -32.0,
        0.0,
        -42.0,
        1.0
      ],
      "name": "StoneCliff2_6"
    },
    {
      "mesh": 6,
      "name": "Object_16"
    },
    {
      "children": [
        18
      ],
      "matrix": [
        1.0,
        0.0,
        0.0,
        0.0,
        0.0,
        1.0,
        0.0,
        0.0,
        0.0,
        0.0,
        1.0,
        0.0,
        35.0,
        0.0,
        -42.0,
        1.0
      ],
      "name": "StoneCliff3_7"
    },
    {
      "mesh": 7,
      "name": "Object_18"
    },
    {
      "children": [
        20
      ],
      "matrix": [
        1.0,
        0.0,
        0.0,
        0.0,
        0.0,
        1.0,
        0.0,
        0.0,
        0.0,
        0.0,
        1.0,
        0.0,
        94.0,
        0.0,
        -42.0,
        1.0
      ],
      "name": "StoneCliff4_8"
    },
    {
      "mesh": 8,
      "name": "Object_20"
    },
    {
      "children": [
        22
      ],
      "matrix": [
        1.0,
        0.0,
        0.0,
        0.0,
        0.0,
        1.0,
        0.0,
        0.0,
        0.0,
        0.0,
        1.0,
        0.0,
        -82.0,
        0.0,
        36.0,
        1.0
      ],
      "name": "Stone1_9"
    },
    {
      "mesh": 9,
      "name": "Object_22"
    },
    {
      "children": [
        24
      ],
      "matrix": [
        1.0,
        0.0,
        0.0,
        0.0,
        0.0,
        1.0,
        0.0,
        0.0,
        0.0,
        0.0,
        1.0,
        0.0,
        -63.0,
        0.0,
        36.0,
        1.0
      ],
      "name": "Stone2_10"
    },
    {
      "mesh": 10,
      "name": "Object_24"
    },
    {
      "children": [
        26
      ],
      "matrix": [
        1.0,
        0.0,
        0.0,
        0.0,
        0.0,
        1.0,
        0.0,
        0.0,
        0.0,
        0.0,
        1.0,
        0.0,
        -43.0,
        0.0,
        36.0,
        1.0
      ],
      "name": "Stone3_11"
    },
    {
      "mesh": 11,
      "name": "Object_26"
    },
    {
      "children": [
        28
      ],
      "matrix": [
        1.0,
        0.0,
        0.0,
        0.0,
        0.0,
        1.0,
        0.0,
        0.0,
        0.0,
        0.0,
        1.0,
        0.0,
        -19.0,
        0.0,
        36.0,
        1.0
      ],
      "name": "Stone4_12"
    },
    {
      "mesh": 12,
      "name": "Object_28"
    },
    {
      "children": [
        30
      ],
      "matrix": [
        1.0,
        0.0,
        0.0,
        0.0,
        0.0,
        1.0,
        0.0,
        0.0,
        0.0,
        0.0,
        1.0,
        0.0,
        7.0,
        0.0,
        36.0,
        1.0
      ],
      "name": "Stone5_13"
    },
    {
      "mesh": 13,
      "name": "Object_30"
    },
    {
      "children": [
        32
      ],
      "matrix": [
        1.0,
        0.0,
        0.0,
        0.0,
        0.0,
        1.0,
        0.0,
        0.0,
        0.0,
        0.0,
        1.0,
        0.0,
        33.0,
        0.0,
        36.0,
        1.0
      ],
      "name": "Stone6_14"
    },
    {
      "mesh": 14,
      "name": "Object_32"
    },
    {
      "children": [
        34
      ],
      "matrix": [
        1.0,
        0.0,
        0.0,
        0.0,
        0.0,
        1.0,
        0.0,
        0.0,
        0.0,
        0.0,
        1.0,
        0.0,
        54.0,
        0.0,
        36.0,
        1.0
      ],
      "name": "Stone7_15"
    },
    {
      "mesh": 15,
      "name": "Object_34"
    },
    {
      "children": [
        36
      ],
      "matrix": [
        1.0,
        0.0,
        0.0,
        0.0,
        0.0,
        1.0,
        0.0,
        0.0,
        0.0,
        0.0,
        1.0,
        0.0,
        71.0,
        0.0,
        36.0,
        1.0
      ],
      "name": "Stone8_16"
    },
    {
      "mesh": 16,
      "name": "Object_36"
    },
    {
      "children": [
        38
      ],
      "matrix": [
        1.0,
        0.0,
        0.0,
        0.0,
        0.0,
        1.0,
        0.0,
        0.0,
        0.0,
        0.0,
        1.0,
        0.0,
        84.0,
        0.0,
        36.0,
        1.0
      ],
      "name": "Stone9_17"
    },
    {
      "mesh": 17,
      "name": "Object_38"
    },
    {
      "children": [
        40
      ],
      "matrix": [
        1.0,
        0.0,
        0.0,
        0.0,
        0.0,
        1.0,
        0.0,
        0.0,
        0.0,
        0.0,
        1.0,
        0.0,
        97.0,
        0.0,
        36.0,
        1.0
      ],
      "name": "Stone10_18"
    },
    {
      "mesh": 18,
      "name": "Object_40"
    }
  ],
  "samplers": [
    {
      "magFilter": 9729,
      "minFilter": 9987,
      "wrapS": 10497,
      "wrapT": 10497
    }
  ],
  "scene": 0,
  "scenes": [
    {
      "name": "Sketchfab_Scene",
      "nodes": [
        0
      ]
    }
  ],
  "textures": [
    {
      "sampler": 0,
      "source": 0
    }
  ]
}
