{
  "accessors": [
    {
      "bufferView": 2,
      "componentType": 5126,
      "count": 576,
      "max": [
        1.1980807781219482,
        1.1538875102996826,
        0.0639372318983078
      ],
      "min": [
        -0.1754312664270401,
        -0.9236372709274292,
        -1.130934715270996
      ],
      "type": "VEC3"
    },
    {
      "bufferView": 2,
      "byteOffset": 6912,
      "componentType": 5126,
      "count": 576,
      "type": "VEC3"
    },
    {
      "bufferView": 3,
      "componentType": 5126,
      "count": 576,
      "type": "VEC4"
    },
    {
      "bufferView": 1,
      "componentType": 5126,
      "count": 576,
      "type": "VEC2"
    },
    {
      "bufferView": 0,
      "componentType": 5125,
      "count": 720,
      "type": "SCALAR"
    },
    {
      "bufferView": 2,
      "byteOffset": 13824,
      "componentType": 5126,
      "count": 162,
      "max": [
        1.298647403717041,
        0.9929949045181274,
        1.013436198234558
      ],
      "min": [
        -0.6638250946998596,
        -0.977908730506897,
        -0.4749603867530823
      ],
      "type": "VEC3"
    },
    {
      "bufferView": 2,
      "byteOffset": 15768,
      "componentType": 5126,
      "count": 162,
      "type": "VEC3"
    },
    {
      "bufferView": 3,
      "byteOffset": 9216,
      "componentType": 5126,
      "count": 162,
      "type": "VEC4"
    },
    {
      "bufferView": 1,
      "byteOffset": 4608,
      "componentType": 5126,
      "count": 162,
      "type": "VEC2"
    },
    {
      "bufferView": 0,
      "byteOffset": 2880,
      "componentType": 5125,
      "count": 198,
      "type": "SCALAR"
    },
    {
      "bufferView": 2,
      "byteOffset": 17712,
      "componentType": 5126,
      "count": 576,
      "max": [
        1.1980807781219482,
        1.1538875102996826,
        0.0639372318983078
      ],
      "min": [
        -0.1754312664270401,
        -0.9236372709274292,
        -1.130934715270996
      ],
      "type": "VEC3"
    },
    {
      "bufferView": 2,
      "byteOffset": 24624,
      "componentType": 5126,
      "count": 576,
      "type": "VEC3"
    },
    {
      "bufferView": 3,
      "byteOffset": 11808,
      "componentType": 5126,
      "count": 576,
      "type": "VEC4"
    },
    {
      "bufferView": 1,
      "byteOffset": 5904,
      "componentType": 5126,
      "count": 576,
      "type": "VEC2"
    },
    {
      "bufferView": 0,
      "byteOffset": 3672,
      "componentType": 5125,
      "count": 720,
      "type": "SCALAR"
    },
    {
      "bufferView": 2,
      "byteOffset": 31536,
      "componentType": 5126,
      "count": 162,
      "max": [
        1.298647403717041,
        0.9929949045181274,
        1.013436198234558
      ],
      "min": [
        -0.6638250946998596,
        -0.977908730506897,
        -0.4749603867530823
      ],
      "type": "VEC3"
    },
    {
      "bufferView": 2,
      "byteOffset": 33480,
      "componentType": 5126,
      "count": 162,
      "type": "VEC3"
    },
    {
      "bufferView": 3,
      "byteOffset": 21024,
      "componentType": 5126,
      "count": 162,
      "type": "VEC4"
    },
    {
      "bufferView": 1,
      "byteOffset": 10512,
      "componentType": 5126,
      "count": 162,
      "type": "VEC2"
    },
    {
      "bufferView": 0,
      "byteOffset": 6552,
      "componentType": 5125,
      "count": 198,
      "type": "SCALAR"
    },
    {
      "bufferView": 2,
      "byteOffset": 35424,
      "componentType": 5126,
      "count": 576,
      "max": [
        1.1980807781219482,
        1.1538875102996826,
        0.0639372318983078
      ],
      "min": [
        -0.1754312664270401,
        -0.9236372709274292,
        -1.130934715270996
      ],
      "type": "VEC3"
    },
    {
      "bufferView": 2,
      "byteOffset": 42336,
      "componentType": 5126,
      "count": 576,
      "type": "VEC3"
    },
    {
      "bufferView": 3,
      "byteOffset": 23616,
      "componentType": 5126,
      "count": 576,
      "type": "VEC4"
    },
    {
      "bufferView": 1,
      "byteOffset": 11808,
      "componentType": 5126,
      "count": 576,
      "type": "VEC2"
    },
    {
      "bufferView": 0,
      "byteOffset": 7344,
      "componentType": 5125,
      "count": 720,
      "type": "SCALAR"
    },
    {
      "bufferView": 2,
      "byteOffset": 49248,
      "componentType": 5126,
      "count": 162,
      "max": [
        1.298647403717041,
        0.9929949045181274,
        1.013436198234558
      ],
      "min": [
        -0.6638250946998596,
        -0.977908730506897,
        -0.4749603867530823
      ],
      "type": "VEC3"
    },
    {
      "bufferView": 2,
      "byteOffset": 51192,
      "componentType": 5126,
      "count": 162,
      "type": "VEC3"
    },
    {
      "bufferView": 3,
      "byteOffset": 32832,
      "componentType": 5126,
      "count": 162,
      "type": "VEC4"
    },
    {
      "bufferView": 1,
      "byteOffset": 16416,
      "componentType": 5126,
      "count": 162,
      "type": "VEC2"
    },
    {
      "bufferView": 0,
      "byteOffset": 10224,
      "componentType": 5125,
      "count": 198,
      "type": "SCALAR"
    },
    {
      "bufferView": 2,
      "byteOffset": 53136,
      "componentType": 5126,
      "count": 576,
      "max": [
        1.1980807781219482,
        1.1538875102996826,
        0.0639372318983078
      ],
      "min": [
        -0.1754312664270401,
        -0.9236372709274292,
        -1.130934715270996
      ],
      "type": "VEC3"
    },
    {
      "bufferView": 2,
      "byteOffset": 60048,
      "componentType": 5126,
      "count": 576,
      "type": "VEC3"
    },
    {
      "bufferView": 3,
      "byteOffset": 35424,
      "componentType": 5126,
      "count": 576,
      "type": "VEC4"
    },
    {
      "bufferView": 1,
      "byteOffset": 17712,
      "componentType": 5126,
      "count": 576,
      "type": "VEC2"
    },
    {
      "bufferView": 0,
      "byteOffset": 11016,
      "componentType": 5125,
      "count": 720,
      "type": "SCALAR"
    },
    {
      "bufferView": 2,
      "byteOffset": 66960,
      "componentType": 5126,
      "count": 162,
      "max": [
        1.298647403717041,
        0.9929949045181274,
        1.013436198234558
      ],
      "min": [
        -0.6638250946998596,
        -0.977908730506897,
        -0.4749603867530823
      ],
      "type": "VEC3"
    },
    {
      "bufferView": 2,
      "byteOffset": 68904,
      "componentType": 5126,
      "count": 162,
      "type": "VEC3"
    },
    {
      "bufferView": 3,
      "byteOffset": 44640,
      "componentType": 5126,
      "count": 162,
      "type": "VEC4"
    },
    {
      "bufferView": 1,
      "byteOffset": 22320,
      "componentType": 5126,
      "count": 162,
      "type": "VEC2"
    },
    {
      "bufferView": 0,
      "byteOffset": 13896,
      "componentType": 5125,
      "count": 198,
      "type": "SCALAR"
    },
    {
      "bufferView": 2,
      "byteOffset": 70848,
      "componentType": 5126,
      "count": 576,
      "max": [
        1.1980807781219482,
        1.1538875102996826,
        0.0639372318983078
      ],
      "min": [
        -0.1754312664270401,
        -0.9236372709274292,
        -1.130934715270996
      ],
      "type": "VEC3"
    },
    {
      "bufferView": 2,
      "byteOffset": 77760,
      "componentType": 5126,
      "count": 576,
      "type": "VEC3"
    },
    {
      "bufferView": 3,
      "byteOffset": 47232,
      "componentType": 5126,
      "count": 576,
      "type": "VEC4"
    },
    {
      "bufferView": 1,
      "byteOffset": 23616,
      "componentType": 5126,
      "count": 576,
      "type": "VEC2"
    },
    {
      "bufferView": 0,
      "byteOffset": 14688,
      "componentType": 5125,
      "count": 720,
      "type": "SCALAR"
    },
    {
      "bufferView": 2,
      "byteOffset": 84672,
      "componentType": 5126,
      "count": 162,
      "max": [
        1.298647403717041,
        0.9929949045181274,
        1.013436198234558
      ],
      "min": [
        -0.6638250946998596,
        -0.977908730506897,
        -0.4749603867530823
      ],
      "type": "VEC3"
    },
    {
      "bufferView": 2,
      "byteOffset": 86616,
      "componentType": 5126,
      "count": 162,
      "type": "VEC3"
    },
    {
      "bufferView": 3,
      "byteOffset": 56448,
      "componentType": 5126,
      "count": 162,
      "type": "VEC4"
    },
    {
      "bufferView": 1,
      "byteOffset": 28224,
      "componentType": 5126,
      "count": 162,
      "type": "VEC2"
    },
    {
      "bufferView": 0,
      "byteOffset": 17568,
      "componentType": 5125,
      "count": 198,
      "type": "SCALAR"
    },
    {
      "bufferView": 2,
      "byteOffset": 88560,
      "componentType": 5126,
      "count": 576,
      "max": [
        1.1980807781219482,
        1.1538875102996826,
        0.0639372318983078
      ],
      "min": [
        -0.1754312664270401,
        -0.9236372709274292,
        -1.130934715270996
      ],
      "type": "VEC3"
    },
    {
      "bufferView": 2,
      "byteOffset": 95472,
      "componentType": 5126,
      "count": 576,
      "type": "VEC3"
    },
    {
      "bufferView": 3,
      "byteOffset": 59040,
      "componentType": 5126,
      "count": 576,
      "type": "VEC4"
    },
    {
      "bufferView": 1,
      "byteOffset": 29520,
      "componentType": 5126,
      "count": 576,
      "type": "VEC2"
    },
    {
      "bufferView": 0,
      "byteOffset": 18360,
      "componentType": 5125,
      "count": 720,
      "type": "SCALAR"
    },
    {
      "bufferView": 2,
      "byteOffset": 102384,
      "componentType": 5126,
      "count": 162,
      "max": [
        1.298647403717041,
        0.9929949045181274,
        1.013436198234558
      ],
      "min": [
        -0.6638250946998596,
        -0.977908730506897,
        -0.4749603867530823
      ],
      "type": "VEC3"
    },
    {
      "bufferView": 2,
      "byteOffset": 104328,
      "componentType": 5126,
      "count": 162,
      "type": "VEC3"
    },
    {
      "bufferView": 3,
      "byteOffset": 68256,
      "componentType": 5126,
      "count": 162,
      "type": "VEC4"
    },
    {
      "bufferView": 1,
      "byteOffset": 34128,
      "componentType": 5126,
      "count": 162,
      "type": "VEC2"
    },
    {
      "bufferView": 0,
      "byteOffset": 21240,
      "componentType": 5125,
      "count": 198,
      "type": "SCALAR"
    }
  ],
  "asset": {
    "generator": "fab-model-conversion",
    "version": "2.0"
  },
  "bufferViews": [
    {
      "buffer": 0,
      "byteLength": 22032,
      "target": 34963
    },
    {
      "buffer": 0,
      "byteLength": 35424,
      "byteOffset": 22032,
      "byteStride": 8,
      "target": 34962
    },
    {
      "buffer": 0,
      "byteLength": 106272,
      "byteOffset": 57456,
      "byteStride": 12,
      "target": 34962
    },
    {
      "buffer": 0,
      "byteLength": 70848,
      "byteOffset": 163728,
      "byteStride": 16,
      "target": 34962
    }
  ],
  "buffers": [
    {
      "byteLength": 234576,
      "uri": "scene.bin"
    }
  ],
  "images": [
    {
      "uri": "textures/Scene_-_Root_BaseColor.jpeg"
    },
    {
      "uri": "textures/Scene_-_Root_ORM.jpeg"
    },
    {
      "uri": "textures/Scene_-_Root_Normal.png"
    }
  ],
  "materials": [
    {
      "doubleSided": true,
      "name": "Scene_-_Root",
      "normalTexture": {
        "index": 2
      },
      "occlusionTexture": {
        "index": 1
      },
      "pbrMetallicRoughness": {
        "baseColorTexture": {
          "index": 0
        },
        "metallicFactor": 0.0,
        "metallicRoughnessTexture": {
          "index": 1
        },
        "roughnessFactor": 0.600000024
      }
    }
  ],
  "meshes": [
    {
      "name": "Ametyst_Gem_low__0",
      "primitives": [
        {
          "attributes": {
            "NORMAL": 1,
            "POSITION": 0,
            "TANGENT": 2,
            "TEXCOORD_0": 3
          },
          "indices": 4,
          "material": 0,
          "mode": 4
        }
      ]
    },
    {
      "name": "Ametyst__Stone_low__0",
      "primitives": [
        {
          "attributes": {
            "NORMAL": 6,
            "POSITION": 5,
            "TANGENT": 7,
            "TEXCOORD_0": 8
          },
          "indices": 9,
          "material": 0,
          "mode": 4
        }
      ]
    },
    {
      "name": "Diamond_Gem_low__0",
      "primitives": [
        {
          "attributes": {
            "NORMAL": 11,
            "POSITION": 10,
            "TANGENT": 12,
            "TEXCOORD_0": 13
          },
          "indices": 14,
          "material": 0,
          "mode": 4
        }
      ]
    },
    {
      "name": "Diamond_Stone_low__0",
      "primitives": [
        {
          "attributes": {
            "NORMAL": 16,
            "POSITION": 15,
            "TANGENT": 17,
            "TEXCOORD_0": 18
          },
          "indices": 19,
          "material": 0,
          "mode": 4
        }
      ]
    },
    {
      "name": "Emerald_Gem_low__0",
      "primitives": [
        {
          "attributes": {
            "NORMAL": 21,
            "POSITION": 20,
            "TANGENT": 22,
            "TEXCOORD_0": 23
          },
          "indices": 24,
          "material": 0,
          "mode": 4
        }
      ]
    },
    {
      "name": "Emerald_Stone_low__0",
      "primitives": [
        {
          "attributes": {
            "NORMAL": 26,
            "POSITION": 25,
            "TANGENT": 27,
            "TEXCOORD_0": 28
          },
          "indices": 29,
          "material": 0,
          "mode": 4
        }
      ]
    },
    {
      "name": "Obsidian_Gem_low__0",
      "primitives": [
        {
          "attributes": {
            "NORMAL": 31,
            "POSITION": 30,
            "TANGENT": 32,
            "TEXCOORD_0": 33
          },
          "indices": 34,
          "material": 0,
          "mode": 4
        }
      ]
    },
    {
      "name": "Obsidian_Stone_low__0",
      "primitives": [
        {
          "attributes": {
            "NORMAL": 36,
            "POSITION": 35,
            "TANGENT": 37,
            "TEXCOORD_0": 38
          },
          "indices": 39,
          "material": 0,
          "mode": 4
        }
      ]
    },
    {
      "name": "Ruby_Gem_low__0",
      "primitives": [
        {
          "attributes": {
            "NORMAL": 41,
            "POSITION": 40,
            "TANGENT": 42,
            "TEXCOORD_0": 43
          },
          "indices": 44,
          "material": 0,
          "mode": 4
        }
      ]
    },
    {
      "name": "Ruby_Stone_low__0",
      "primitives": [
        {
          "attributes": {
            "NORMAL": 46,
            "POSITION": 45,
            "TANGENT": 47,
            "TEXCOORD_0": 48
          },
          "indices": 49,
          "material": 0,
          "mode": 4
        }
      ]
    },
    {
      "name": "Sun_Gem_low__0",
      "primitives": [
        {
          "attributes": {
            "NORMAL": 51,
            "POSITION": 50,
            "TANGENT": 52,
            "TEXCOORD_0": 53
          },
          "indices": 54,
          "material": 0,
          "mode": 4
        }
      ]
    },
    {
      "name": "Sun_Stone_low__0",
      "primitives": [
        {
          "attributes": {
            "NORMAL": 56,
            "POSITION": 55,
            "TANGENT": 57,
            "TEXCOORD_0": 58
          },
          "indices": 59,
          "material": 0,
          "mode": 4
        }
      ]
    }
  ],
  "nodes": [
    {
      "children": [
        1
      ],
      "matrix": [
        1.0,
        0.0,
        0.0,
        0.0,
        0.0,
        2.220446049250313e-16,
        -1.0,
        0.0,
        0.0,
        1.0,
        2.220446049250313e-16,
        0.0,
        0.0,
        0.0,
        0.0,
        1.0
      ],
      "name": "FAB converted model"
    },
    {
      "children": [
        2
      ],
      "matrix": [
        1.0,
        0.0,
        0.0,
        0.0,
        0.0,
        0.0,
        1.0,
        0.0,
        0.0,
        -1.0,
        0.0,
        0.0,
        0.0,
        0.0,
        0.0,
        1.0
      ],
      "name": "Gem_ore_low.fbx"
    },
    {
      "children": [
        3,
        5,
        7,
        9,
        11,
        13,
        15,
        17,
        19,
        21,
        23,
        25
      ],
      "name": "RootNode"
    },
    {
      "children": [
        4
      ],
      "matrix": [
        1.0,
        0.0,
        0.0,
        0.0,
        -0.0,
        -1.6292067939183141e-07,
        -0.9999999999999868,
        0.0,
        0.0,
        0.9999999999999868,
        -1.6292067939183141e-07,
        0.0,
        -0.12253028154373169,
        1.2375917434692383,
        2.3877828121185303,
        1.0
      ],
      "name": "Ametyst_Gem_low"
    },
    {
      "mesh": 0,
      "name": "Ametyst_Gem_low__0"
    },
    {
      "children": [
        6
      ],
      "matrix": [
        1.0,
        0.0,
        0.0,
        0.0,
        -0.0,
        -1.6292067939183141e-07,
        -0.9999999999999868,
        0.0,
        0.0,
        0.9999999999999868,
        -1.6292067939183141e-07,
        0.0,
        -0.09040207415819168,
        0.1837138831615448,
        2.2998924255371094,
        1.0
      ],
      "name": "Ametyst__Stone_low"
    },
    {
      "mesh": 1,
      "name": "Ametyst__Stone_low__0"
    },
    {
      "children": [
        8
      ],
      "matrix": [
        1.0,
        0.0,
        0.0,
        0.0,
        -0.0,
        -1.6292067939183141e-07,
        -0.9999999999999868,
        0.0,
        0.0,
        0.9999999999999868,
        -1.6292067939183141e-07,
        0.0,
        -0.12253028154373169,
        1.2375917434692383,
        -2.2149622440338135,
        1.0
      ],
      "name": "Diamond_Gem_low"
    },
    {
      "mesh": 2,
      "name": "Diamond_Gem_low__0"
    },
    {
      "children": [
        10
      ],
      "matrix": [
        1.0,
        0.0,
        0.0,
        0.0,
        -0.0,
        -1.6292067939183141e-07,
        -0.9999999999999868,
        0.0,
        0.0,
        0.9999999999999868,
        -1.6292067939183141e-07,
        0.0,
        -0.09040207415819168,
        0.1837138831615448,
        -2.3028526306152344,
        1.0
      ],
      "name": "Diamond_Stone_low"
    },
    {
      "mesh": 3,
      "name": "Diamond_Stone_low__0"
    },
    {
      "children": [
        12
      ],
      "matrix": [
        1.0,
        0.0,
        0.0,
        0.0,
        0.0,
        -1.6292067939183141e-07,
        -0.9999999999999868,
        0.0,
        0.0,
        0.9999999999999868,
        -1.6292067939183141e-07,
        0.0,
        2.138554334640503,
        1.2375917434692383,
        -2.2149622440338135,
        1.0
      ],
      "name": "Emerald_Gem_low"
    },
    {
      "mesh": 4,
      "name": "Emerald_Gem_low__0"
    },
    {
      "children": [
        14
      ],
      "matrix": [
        1.0,
        0.0,
        0.0,
        0.0,
        0.0,
        -1.6292067939183141e-07,
        -0.9999999999999868,
        0.0,
        0.0,
        0.9999999999999868,
        -1.6292067939183141e-07,
        0.0,
        2.170682430267334,
        0.1837138831615448,
        -2.3028526306152344,
        1.0
      ],
      "name": "Emerald_Stone_low"
    },
    {
      "mesh": 5,
      "name": "Emerald_Stone_low__0"
    },
    {
      "children": [
        16
      ],
      "matrix": [
        1.0,
        0.0,
        0.0,
        0.0,
        0.0,
        -1.6292067939183141e-07,
        -0.9999999999999868,
        0.0,
        0.0,
        0.9999999999999868,
        -1.6292067939183141e-07,
        0.0,
        2.138554334640503,
        1.2375917434692383,
        0.08789044618606567,
        1.0
      ],
      "name": "Obsidian_Gem_low"
    },
    {
      "mesh": 6,
      "name": "Obsidian_Gem_low__0"
    },
    {
      "children": [
        18
      ],
      "matrix": [
        1.0,
        0.0,
        0.0,
        0.0,
        0.0,
        -1.6292067939183141e-07,
        -0.9999999999999868,
        0.0,
        0.0,
        0.9999999999999868,
        -1.6292067939183141e-07,
        0.0,
        2.170682430267334,
        0.1837138831615448,
        0.0,
        1.0
      ],
      "name": "Obsidian_Stone_low"
    },
    {
      "mesh": 7,
      "name": "Obsidian_Stone_low__0"
    },
    {
      "children": [
        20
      ],
      "matrix": [
        1.0,
        0.0,
        0.0,
        0.0,
        -0.0,
        -1.6292067939183141e-07,
        -0.9999999999999868,
        0.0,
        0.0,
        0.9999999999999868,
        -1.6292067939183141e-07,
        0.0,
        -0.12253028154373169,
        1.2375917434692383,
        0.08789044618606567,
        1.0
      ],
      "name": "Ruby_Gem_low"
    },
    {
      "mesh": 8,
      "name": "Ruby_Gem_low__0"
    },
    {
      "children": [
        22
      ],
      "matrix": [
        1.0,
        0.0,
        0.0,
        0.0,
        -0.0,
        -1.6292067939183141e-07,
        -0.9999999999999868,
        0.0,
        0.0,
        0.9999999999999868,
        -1.6292067939183141e-07,
        0.0,
        -0.09040207415819168,
        0.1837138831615448,
        0.0,
        1.0
      ],
      "name": "Ruby_Stone_low"
    },
    {
      "mesh": 9,
      "name": "Ruby_Stone_low__0"
    },
    {
      "children": [
        24
      ],
      "matrix": [
        1.0,
        0.0,
        0.0,
        0.0,
        0.0,
        -1.6292067939183141e-07,
        -0.9999999999999868,
        0.0,
        0.0,
        0.9999999999999868,
        -1.6292067939183141e-07,
        0.0,
        2.138554334640503,
        1.2375917434692383,
        2.3877828121185303,
        1.0
      ],
      "name": "Sun_Gem_low"
    },
    {
      "mesh": 10,
      "name": "Sun_Gem_low__0"
    },
    {
      "children": [
        26
      ],
      "matrix": [
        1.0,
        0.0,
        0.0,
        0.0,
        0.0,
        -1.6292067939183141e-07,
        -0.9999999999999868,
        0.0,
        0.0,
        0.9999999999999868,
        -1.6292067939183141e-07,
        0.0,
        2.170682430267334,
        0.1837138831615448,
        2.2998924255371094,
        1.0
      ],
      "name": "Sun_Stone_low"
    },
    {
      "mesh": 11,
      "name": "Sun_Stone_low__0"
    }
  ],
  "samplers": [
    {
      "magFilter": 9729,
      "minFilter": 9987,
      "wrapS": 10497,
      "wrapT": 10497
    }
  ],
  "scene": 0,
  "scenes": [
    {
      "name": "FAB converted",
      "nodes": [
        0
      ]
    }
  ],
  "textures": [
    {
      "sampler": 0,
      "source": 0
    },
    {
      "sampler": 0,
      "source": 1
    },
    {
      "sampler": 0,
      "source": 2
    }
  ]
}
